<?xml version="1.0" encoding="UTF-8" standalone="no"?>
<svg
   xmlns:dc="http://purl.org/dc/elements/1.1/"
   xmlns:cc="http://creativecommons.org/ns#"
   xmlns:rdf="http://www.w3.org/1999/02/22-rdf-syntax-ns#"
   xmlns:svg="http://www.w3.org/2000/svg"
   xmlns="http://www.w3.org/2000/svg"
   xml:space="preserve"
   enable-background="new 0 0 479 436"
   viewBox="0 0 455 437"
   height="437"
   width="455"
   y="0px"
   x="0px"
   id="Layer_1"
   version="1.1"><title
   id="title4138">Wind</title><metadata
   id="metadata8"><rdf:RDF><cc:Work
       rdf:about=""><dc:format>image/svg+xml</dc:format><dc:type
         rdf:resource="http://purl.org/dc/dcmitype/StillImage" /><dc:title>Wind</dc:title><cc:license
         rdf:resource="http://creativecommons.org/publicdomain/zero/1.0/" /><dc:subject><rdf:Bag><rdf:li>pictogram</rdf:li><rdf:li>pictograph</rdf:li><rdf:li>wind</rdf:li><rdf:li>weather</rdf:li><rdf:li>metaphor</rdf:li><rdf:li>analogue</rdf:li><rdf:li>representation</rdf:li><rdf:li>icon</rdf:li><rdf:li></rdf:li></rdf:Bag></dc:subject><dc:description>analogue or representation of wind as a gray silhouette</dc:description><dc:creator><cc:Agent><dc:title>NicholasJudy456</dc:title></cc:Agent></dc:creator><dc:publisher><cc:Agent><dc:title>Openclipart.org</dc:title></cc:Agent></dc:publisher><dc:identifier>https://openclipart.org/</dc:identifier><dc:source>https://openclipart.org/user-detail/NicholasJudy456</dc:source></cc:Work><cc:License
       rdf:about="http://creativecommons.org/publicdomain/zero/1.0/"><cc:permits
         rdf:resource="http://creativecommons.org/ns#Reproduction" /><cc:permits
         rdf:resource="http://creativecommons.org/ns#Distribution" /><cc:permits
         rdf:resource="http://creativecommons.org/ns#DerivativeWorks" /></cc:License></rdf:RDF></metadata><defs
   id="defs6" />  <path
   id="path4136"
   d="m 212.80339,418.77534 -6.00922,-3.17587 9.19307,-1.03209 c 5.05618,-0.56766 9.45266,-1.29722 9.76994,-1.62125 0.31728,-0.32402 -3.833,-2.47197 -9.22284,-4.77321 l -9.79972,-4.18407 -13.49096,2.55354 c -12.78997,2.42086 -14.18423,2.49603 -26.83305,1.44665 -13.45118,-1.11595 -19.42497,-2.69612 -30.46132,-8.05749 -3.09794,-1.50496 -4.84246,-3.06806 -5.254,-4.70762 -0.33887,-1.35003 -0.43078,-2.63991 -0.20425,-2.86643 0.22652,-0.22651 7.57219,0.27577 16.3237,1.11616 17.95042,1.72375 32.43719,1.99373 32.43719,0.60452 0,-0.85663 -3.93948,-2.20327 -14.65599,-5.00988 -2.27693,-0.59632 -4.74467,-1.8129 -5.48388,-2.70351 -1.42118,-1.71226 -0.42569,-1.69941 19.30599,0.24915 4.98352,0.49214 5.80759,0.31485 6.75379,-1.45296 1.27255,-2.37755 1.93275,-2.18656 -17.83403,-5.15928 -9.33644,-1.4041 -18.48273,-2.01768 -30.07626,-2.01768 l -16.65984,0 -12.93968,-4.99952 c -9.65677,-3.73109 -13.90059,-5.93773 -16.72716,-8.69755 -2.08313,-2.03393 -3.61662,-3.86892 -3.40776,-4.07776 0.208865,-0.20883 3.54143,1.21235 7.40572,3.15819 l 7.02598,3.5379 8.24545,-1.44955 c 7.80884,-1.37281 9.82839,-2.02323 8.87204,-2.85733 -0.22952,-0.20017 -6.2763,-2.27586 -13.43728,-4.61263 -7.16098,-2.33679 -20.907067,-7.35935 -30.546852,-11.16127 l -17.526882,-6.91258 -15.52381,-13.57858 c -8.538096,-7.46822 -15.874889,-13.92169 -16.303977,-14.34103 -0.835972,-0.81699 -5.055164,-24.14517 -4.47236,-24.72791 0.191494,-0.19149 4.639316,3.3554 9.88406,7.88197 5.244734,4.52656 10.253677,8.81698 11.130973,9.53429 1.583338,1.29458 26.939768,11.4107 27.413648,10.93687 0.136028,-0.13602 -4.924246,-5.87512 -11.245049,-12.75356 C 47.454127,290.89935 46.583522,289.62038 38.347089,273.33318 33.611967,263.96967 26.421778,248.89861 22.368892,239.84192 L 15,223.37522 l 0,-25.48596 0,-25.48594 4.757297,-5.60826 c 6.052433,-7.13507 13.293909,-14.44609 13.803731,-13.93632 0.216052,0.21603 -0.937277,4.65335 -2.562941,9.86071 -3.757613,12.03642 -3.776442,15.19856 -0.04757,7.99481 l 2.836,-5.47889 1.264159,5.64835 c 1.553363,6.94051 2.201907,8.05053 4.245522,7.2664 1.126117,-0.43209 1.807292,-2.53636 2.29493,-7.08941 0.381405,-3.56121 0.862463,-6.30595 1.068999,-6.09943 0.206547,0.20654 1.244399,6.8023 2.306328,14.65726 1.061929,7.85495 2.140813,14.49175 2.397507,14.74842 0.256694,0.25666 0.767407,-7.55796 1.134901,-17.36584 0.367503,-9.80788 1.342329,-27.28403 2.166292,-38.83589 l 1.498098,-21.00337 4.057533,-7.34975 c 2.231643,-4.04236 4.260275,-7.14702 4.508085,-6.89924 0.2478,0.24779 -0.05659,5.16065 -0.676498,10.9175 -1.071914,9.95492 -0.175199,29.2187 1.709652,36.72784 1.30348,5.19301 3.494661,-5.84339 3.658832,-18.42858 0.151632,-11.62403 0.314031,-12.45978 4.962193,-25.53681 4.610923,-12.972272 5.123283,-13.884306 12.658252,-22.532482 7.065448,-8.109299 25.199358,-24.686915 37.127818,-33.941425 2.55109,-1.979233 9.73854,-5.495212 16.52534,-8.083922 11.68537,-4.457185 27.36391,-9.051898 28.16263,-8.253267 0.21789,0.217884 -4.45388,4.473558 -10.38174,9.457051 -13.77982,11.584559 -15.18199,13.101906 -13.24194,14.329657 3.06649,1.940586 11.16786,4.128681 13.30273,3.592908 1.22613,-0.307713 6.50008,-4.406441 11.71988,-9.1083 5.21982,-4.701857 16.27274,-13.719034 24.56208,-20.038184 l 15.07149,-11.489351 18.98073,-3.070756 c 16.41698,-2.655989 19.6306,-2.915122 23.79209,-1.918455 2.64623,0.633773 4.63515,1.328485 4.41981,1.543805 -0.21535,0.21533 -6.84146,1.288597 -14.7247,2.385057 -12.01655,1.67134 -14.87575,2.407361 -17.69017,4.553824 -3.87164,2.952777 -4.36172,4.725602 -1.10356,3.992055 23.00467,-5.179336 25.46422,-5.539475 37.8316,-5.539475 10.84526,0 13.11322,0.274326 15.01791,1.816509 2.23656,1.81089 2.19571,1.837399 -13.20536,8.568701 -12.87041,5.625249 -18.5403,8.873862 -33.97123,19.464177 -10.18731,6.991578 -24.23294,16.542485 -31.21253,21.224234 -9.87549,6.624259 -12.69891,9.01204 -12.72966,10.765518 -0.0576,3.284154 0.97068,2.835017 6.50811,-2.842647 7.92169,-8.122318 22.50009,-17.688999 36.60986,-24.024231 12.0821,-5.424829 13.62897,-5.861158 24.18538,-6.822183 15.16219,-1.380331 37.81842,-2.46265 37.81842,-1.806645 0,0.29112 -6.87304,2.838642 -15.27342,5.66116 -14.09361,4.735437 -15.73762,5.54952 -21.28265,10.538872 -4.02199,3.618937 -5.67801,5.741206 -5.00768,6.417541 0.67279,0.678828 6.21994,-0.301955 16.8996,-2.987977 8.74393,-2.199181 16.09281,-3.803773 16.33084,-3.56576 0.23804,0.238013 -3.6587,3.026262 -8.65942,6.196121 -5.00071,3.16986 -8.96941,5.860778 -8.81932,5.97982 0.56559,0.448586 41.77672,-4.117315 42.35174,-4.692284 0.6864,-0.686339 -3.37781,-3.716407 -8.48868,-6.328712 -1.90665,-0.974545 -5.72662,-2.049074 -8.48883,-2.387832 l -5.02217,-0.615918 6.98652,-4.202158 6.98653,-4.202156 16.53648,-1.118573 16.53649,-1.118573 10.88781,5.083658 c 8.49336,3.965647 12.6278,6.652079 18.79965,12.215398 4.3515,3.922464 7.77198,7.271582 7.60106,7.442489 -0.17093,0.170906 -6.38232,-1.231315 -13.8031,-3.116052 -16.1956,-4.11337 -16.42768,-4.136913 -14.7805,-1.499612 1.77934,2.848916 6.09513,4.328009 10.49497,3.596805 3.45071,-0.573477 4.47956,-0.151459 10.82391,4.4397 3.85592,2.790382 11.62735,7.809928 17.26984,11.154568 6.87411,4.074684 11.62873,7.716894 14.41018,11.038742 l 4.15111,4.95758 -2.89251,-0.70115 c -1.5909,-0.38562 -3.93592,-1.08581 -5.21119,-1.55595 -5.1274,-1.89029 -5.21289,-0.90689 -0.55688,6.40566 3.78795,5.9492 11.01749,15.06205 26.10706,32.90796 1.26763,1.49919 7.70575,31.87894 6.92192,32.6627 -0.19463,0.19461 -5.5825,-9.2324 -11.97303,-20.94892 l -11.61914,-21.30276 -21.80905,-16.36241 c -21.28646,-15.97032 -21.81718,-16.29519 -22.14817,-13.55752 -0.28098,2.32414 0.57733,3.61729 5.00768,7.54471 2.94074,2.6069 5.23305,5.21052 5.09402,5.7858 -0.32182,1.33168 31.92721,39.64072 47.23496,56.11102 11.16733,12.01543 12.05894,13.31079 22.20632,32.26198 7.68294,14.34863 10.33042,20.17532 9.68833,21.32255 -0.70504,1.25973 -3.79566,-1.55733 -15.29947,-13.94524 -7.92877,-8.53812 -14.49815,-15.42938 -14.59862,-15.31389 -0.10047,0.11549 1.10255,9.44828 2.67337,20.73956 1.57083,11.29127 2.87304,22.92186 2.89382,25.84575 0.0207,2.92389 1.38986,10.67123 3.04239,17.21633 2.62851,10.41059 3.00186,13.6311 2.98269,25.72859 -0.0189,11.93433 -0.42052,15.39102 -2.93191,25.23657 -1.6005,6.27448 -3.50607,11.98286 -4.23461,12.68528 -0.72854,0.70244 -4.93015,4.26104 -9.33691,7.908 -8.82449,7.30303 -15.17509,9.89284 -22.96431,9.36499 l -4.53356,-0.30723 10.59386,-12.51804 c 5.82662,-6.88493 10.99195,-13.41935 11.47849,-14.52094 0.48656,-1.10158 2.9248,-10.22657 5.41831,-20.27773 l 4.53367,-18.27486 -1.51975,-13.27061 c -1.81741,-15.86996 -2.37302,-18.77857 -3.58706,-18.77857 -0.51984,0 -0.92255,6.44237 -0.92332,14.7713 -0.002,17.78262 -1.6883,28.36457 -6.62901,41.58989 -2.01238,5.38672 -3.81656,9.63637 -4.00931,9.44364 -0.19275,-0.19272 0.51618,-7.07863 1.57539,-15.302 1.74658,-13.55995 1.58538,-18.32231 -0.548,-16.18914 -0.34752,0.34749 -2.82821,11.08008 -5.51266,23.85022 -2.68444,12.77014 -5.44944,23.94736 -6.14445,24.83826 -0.69502,0.89089 -6.70262,8.15423 -13.35024,16.14074 -6.64763,7.98652 -15.56497,19.02744 -19.81634,24.53538 -4.25137,5.50793 -11.38317,13.24286 -15.84845,17.18873 -7.01799,6.20161 -8.99897,7.39539 -14.61149,8.80508 -3.57104,0.89693 -6.66474,1.45886 -6.87491,1.24871 -0.21015,-0.21014 2.34593,-2.56995 5.68019,-5.24403 9.4766,-7.60019 20.33426,-20.79374 21.25501,-25.82772 1.36328,-7.45348 1.01335,-7.82608 -5.0185,-5.34364 -5.7528,2.36761 -9.75766,7.19191 -26.31997,31.70534 -6.71797,9.94309 -18.00101,22.93044 -18.00101,20.72008 0,-0.40462 1.80779,-4.33086 4.01732,-8.72499 2.20953,-4.39412 3.77567,-7.98932 3.48032,-7.98932 -0.29535,0 -4.69462,3.10615 -9.77616,6.90252 -5.08153,3.79638 -12.10034,8.33177 -15.59738,10.07864 -9.22603,4.60867 -30.52082,9.06995 -42.99831,9.00821 -8.95372,-0.0443 -10.21584,-0.30277 -15.7433,-3.22403 z M 89.32867,106.24533 c 4.97209,-4.44055 7.12579,-7.182246 8.26268,-10.518505 2.0916,-6.137968 2.00995,-6.351325 -1.74537,-4.560704 -2.27543,1.084974 -5.88726,5.290115 -11.76805,13.701169 -4.666749,6.67464 -8.672767,12.60995 -8.902266,13.18955 -0.421966,1.06567 1.963852,-0.92542 14.153006,-11.81151 z m 243.17175,2.36592 c -3.98011,-4.59388 -6.1662,-6.24629 -9.36331,-7.07752 -2.29399,-0.59642 -5.81478,-1.50964 -7.82396,-2.02938 -5.00016,-1.293444 -17.95607,0.5491 -19.63265,2.79209 -1.75666,2.35013 -1.5573,3.51689 0.50077,2.93068 0.96398,-0.27459 4.27738,-0.99902 7.3631,-1.60985 l 5.61043,-1.11061 12.91799,5.94913 c 7.10491,3.27202 13.52596,5.99399 14.26902,6.04885 0.74306,0.0549 -0.98557,-2.59718 -3.84139,-5.89339 z m -200.20829,-35.258046 11.87034,-7.202081 -2.70778,-1.776111 c -2.64621,-1.735731 -2.81088,-1.716173 -7.24329,0.860341 -12.8505,7.469877 -17.4122,11.220273 -16.50928,13.573035 0.36873,0.960795 1.1315,1.746897 1.69504,1.746897 0.56356,0 6.36629,-3.240941 12.89497,-7.202081 z"
   style="fill:#c2c2c2" />
</svg>